<svg width="400" height="400" viewBox="0 0 400 400" fill="none" xmlns="http://www.w3.org/2000/svg">
  <defs>
    <linearGradient id="grad1" x1="0%" y1="0%" x2="100%" y2="100%">
      <stop offset="0%" style="stop-color:#00F2FE;stop-opacity:1" />
      <stop offset="100%" style="stop-color:#AF40FF;stop-opacity:1" />
    </linearGradient>
  </defs>

  <circle cx="200" cy="160" r="70" stroke="url(#grad1)" stroke-width="2" fill="none" opacity="0.3"/>
  <ellipse cx="200" cy="160" rx="30" ry="70" stroke="url(#grad1)" stroke-width="1.5" fill="none" opacity="0.3"/>
  <line x1="130" y1="160" x2="270" y2="160" stroke="url(#grad1)" stroke-width="1.5" opacity="0.3"/>

  <g stroke="url(#grad1)" stroke-width="2">
    <path d="M130 160 L110 160" />
    <circle cx="105" cy="160" r="4" fill="url(#grad1)" />
    
    <path d="M145 105 L130 85" />
    <circle cx="125" cy="80" r="4" fill="url(#grad1)" />
    
    <path d="M255 105 L270 85" />
    <circle cx="275" cy="80" r="4" fill="url(#grad1)" />
    
    <path d="M270 160 L290 160" />
    <circle cx="295" cy="160" r="4" fill="url(#grad1)" />
  </g>

  <g fill="url(#grad1)">
    <rect x="175" y="130" width="12" height="60" rx="2" />
    <path d="M195 130 H220 C240 130 255 145 255 160 C255 175 240 190 220 190 H195 V130 Z M207 142 V178 H220 C230 178 240 170 240 160 C240 150 230 142 220 142 H207 Z" />
  </g>

  <text x="200" y="270" text-anchor="middle" font-family="Arial, sans-serif" font-weight="bold" font-size="36" fill="#FFFFFF">Intersites</text>
  <text x="200" y="305" text-anchor="middle" font-family="Arial, sans-serif" font-size="28" letter-spacing="4" fill="url(#grad1)">DIGITAL</text>
</svg>